
<svg xmlns="http://www.w3.org/2000/svg" xmlns:xlink="http://www.w3.org/1999/xlink" viewBox="0 0 451.54 408.62"><defs><style>.cls-1{isolation:isolate;}.cls-2{fill:url(#linear-gradient);}.cls-3{fill:url(#linear-gradient-2);}.cls-4{fill:url(#linear-gradient-3);}.cls-5{fill:url(#linear-gradient-4);}.cls-6{fill:#fff;}.cls-7{fill:#edf3f8;}.cls-8{fill:#d2e3f4;}.cls-9{fill:#deebf7;}.cls-10{fill:#9ec9f5;}.cls-11{fill:#112129;}.cls-12{fill:url(#linear-gradient-5);}.cls-13{fill:url(#linear-gradient-6);}.cls-14,.cls-16{mix-blend-mode:screen;}.cls-14{fill:url(#linear-gradient-7);}.cls-15{fill:url(#linear-gradient-8);}.cls-16{fill:url(#linear-gradient-9);}.cls-17{fill:url(#linear-gradient-10);}.cls-18{fill:url(#linear-gradient-11);}.cls-19{fill:#d6d9db;}.cls-20{fill:#c5d1d7;}.cls-21{fill:#755f5a;}.cls-22{fill:#e2a380;}.cls-23{fill:#4d4848;}.cls-24{fill:#e6e7e8;}.cls-25{fill:#d78f6c;}.cls-26{fill:#cad5da;}.cls-27{fill:#f7ba9c;}.cls-28,.cls-30,.cls-31,.cls-35{fill:none;stroke-linecap:round;stroke-linejoin:round;}.cls-28{stroke:#d67e59;}.cls-28,.cls-35{stroke-width:0.79px;}.cls-29{fill:#553f28;}.cls-30{stroke:#5d4f4c;}.cls-30,.cls-31{stroke-width:1.19px;}.cls-31{stroke:#d45844;}.cls-32{fill:#614e49;}.cls-33{fill:#eaeced;}.cls-34{fill:#dde1e3;}.cls-35{stroke:#d78f6c;}</style><linearGradient id="linear-gradient" x1="108.91" y1="114.12" x2="116.58" y2="114.12" gradientUnits="userSpaceOnUse"><stop offset="0" stop-color="#008bef"/><stop offset="1" stop-color="#0078ef"/></linearGradient><linearGradient id="linear-gradient-2" x1="93.09" y1="91.45" x2="108.43" y2="91.45" gradientTransform="translate(68.26 -40.68) rotate(33.95)" xlink:href="#linear-gradient"/><linearGradient id="linear-gradient-3" x1="84.62" y1="77.53" x2="9.98" y2="14.07" gradientTransform="translate(37.32 -15.46) rotate(45)" xlink:href="#linear-gradient"/><linearGradient id="linear-gradient-4" x1="85.87" y1="76.07" x2="11.22" y2="12.61" xlink:href="#linear-gradient"/><linearGradient id="linear-gradient-5" x1="282.06" y1="70.33" x2="282.06" y2="140.41" gradientTransform="translate(156.81 -168.72) rotate(45)" xlink:href="#linear-gradient"/><linearGradient id="linear-gradient-6" x1="364.01" y1="289.98" x2="375.9" y2="345.68" gradientUnits="userSpaceOnUse"><stop offset="0" stop-color="#00c5f5"/><stop offset="1" stop-color="#0078ef"/></linearGradient><linearGradient id="linear-gradient-7" x1="359.21" y1="293.22" x2="377.72" y2="351.98" xlink:href="#linear-gradient"/><linearGradient id="linear-gradient-8" x1="425.06" y1="291.38" x2="399.92" y2="350.15" xlink:href="#linear-gradient-6"/><linearGradient id="linear-gradient-9" x1="386.16" y1="342.27" x2="425.68" y2="342.27" xlink:href="#linear-gradient"/><linearGradient id="linear-gradient-10" x1="365.99" y1="380.64" x2="412.94" y2="380.64" gradientUnits="userSpaceOnUse"><stop offset="0.06" stop-color="#fd8200"/><stop offset="1" stop-color="#ff5700"/></linearGradient><linearGradient id="linear-gradient-11" x1="363.13" y1="362.37" x2="415.8" y2="362.37" gradientTransform="translate(778.93 724.74) rotate(180)" xlink:href="#linear-gradient-10"/></defs><g class="cls-1"><g id="Layer_2" data-name="Layer 2"><g id="Layer_1-2" data-name="Layer 1"><path class="cls-2" d="M109,113.61a3.83,3.83,0,1,0,4.3-3.29A3.83,3.83,0,0,0,109,113.61Z"/><circle class="cls-3" cx="100.76" cy="91.45" r="7.67" transform="matrix(0.83, -0.56, 0.56, 0.83, -33.9, 71.87)"/><circle class="cls-4" cx="37.32" cy="37.32" r="37.32" transform="translate(-15.46 37.32) rotate(-45)"/><circle class="cls-5" cx="69.83" cy="62.44" r="22.11"/><path class="cls-6" d="M71.93,48.92A11.39,11.39,0,0,0,69.3,46a11.64,11.64,0,0,0-14-.2h0l-22-17.28L21.13,19a2.38,2.38,0,0,0-3.34.4l-2.46,3.13h0l-2.16,2.75a2,2,0,0,0,.34,2.81l.28.21A2,2,0,0,0,16.61,28l2.16-2.74,2,1.56-2.16,2.74a2,2,0,0,0,.35,2.81l.36.28a2,2,0,0,0,2.81-.33l2.15-2.75,2,1.57-2.08,2.66a2.06,2.06,0,0,0,.11,2.76,2,2,0,0,0,3-.2l2.15-2.75,22,17.28a11.77,11.77,0,0,0-.87,4.43,11.64,11.64,0,1,0,21.39-6.35ZM66.41,61.75a2.91,2.91,0,0,1-1.6-.63,3,3,0,0,1,3.69-4.7,2.89,2.89,0,0,1,1,1.44h0a3,3,0,0,1-3.09,3.89Z"/><path class="cls-6" d="M71.68,62a11.65,11.65,0,0,1-21.14-6.75c1.88,3.84,4.83,7.22,9.45,7.94a8.14,8.14,0,0,0,6.42-1.46,3,3,0,0,0,3.09-3.89h0a26.86,26.86,0,0,0,2.44-8.94A11.72,11.72,0,0,1,71.68,62Z"/><circle class="cls-7" cx="176.9" cy="240.69" r="97.53"/><circle class="cls-7" cx="212.01" cy="146.28" r="74.12"/><circle class="cls-7" cx="350.89" cy="203.23" r="74.12"/><rect class="cls-8" x="53.89" y="402.19" width="397.66" height="3.12"/><path class="cls-9" d="M238.06,24.22a12.85,12.85,0,0,0-4.21,1.19,13.06,13.06,0,0,0-7.24,13.89h0L198.19,52.62,182.42,60a2.68,2.68,0,0,0-1.29,3.55l1.9,4h0l1.67,3.54a2.24,2.24,0,0,0,3,1.08l.36-.17a2.24,2.24,0,0,0,1.09-3l-1.67-3.55,2.57-1.2,1.66,3.54a2.24,2.24,0,0,0,3,1.08l.46-.22a2.24,2.24,0,0,0,1.09-3l-1.66-3.55L197.14,61l1.62,3.43a2.33,2.33,0,0,0,2.82,1.28,2.25,2.25,0,0,0,1.3-3.08l-1.66-3.54,28.42-13.32a13.07,13.07,0,1,0,8.42-21.54Zm10.08,12a3.35,3.35,0,1,1-4.29-4.78,3.29,3.29,0,0,1,1.94-.27h0a3.36,3.36,0,0,1,2.34,5.06Z"/><path class="cls-9" d="M251.07,31.09a13.07,13.07,0,0,1-17.44,17.78c4.8.05,9.68-1.2,12.73-5.46a9.15,9.15,0,0,0,1.78-7.18,3.36,3.36,0,0,0-2.34-5.06h0a30.19,30.19,0,0,0-7.73-7A13.17,13.17,0,0,1,251.07,31.09Z"/><path class="cls-9" d="M362.27,67.56a6.34,6.34,0,0,0-2.17-.69,6.78,6.78,0,0,0-7.11,4h0l-16.15-2.34-9-1.3a1.39,1.39,0,0,0-1.57,1.17l-.33,2.3h0l-.29,2a1.16,1.16,0,0,0,1,1.32l.2,0a1.18,1.18,0,0,0,1.33-1l.29-2,1.45.21-.29,2a1.18,1.18,0,0,0,1,1.32l.27,0a1.16,1.16,0,0,0,1.32-1l.29-2,1.47.21-.28,2a1.2,1.2,0,0,0,.86,1.36,1.16,1.16,0,0,0,1.44-1l.29-2,16.15,2.35A6.62,6.62,0,0,0,353.3,77a6.79,6.79,0,1,0,9-9.43Zm.94,8.09a1.74,1.74,0,1,1-.49-3.3,1.73,1.73,0,0,1,.92.44h0a1.74,1.74,0,0,1-.43,2.86Z"/><path class="cls-9" d="M366,74.26A6.8,6.8,0,0,1,353.3,77c2.07,1.39,4.54,2.24,7.09,1.27a4.79,4.79,0,0,0,2.82-2.61,1.74,1.74,0,0,0,.43-2.86h0a15.91,15.91,0,0,0-1.37-5.23A6.83,6.83,0,0,1,366,74.26Z"/><rect class="cls-8" x="171.36" y="101.6" width="221.4" height="199.81" rx="43.31"/><rect class="cls-6" x="201.18" y="161.24" width="161.75" height="23.2" rx="10.84"/><rect class="cls-6" x="201.18" y="202.41" width="161.75" height="23.2" rx="10.84"/><rect class="cls-10" x="201.18" y="247.34" width="161.75" height="23.2" rx="10.84"/><circle class="cls-11" cx="213.98" cy="214.47" r="2.99"/><circle class="cls-11" cx="244.24" cy="214.47" r="2.99"/><circle class="cls-11" cx="274.5" cy="214.47" r="2.99"/><circle class="cls-11" cx="229.11" cy="214.47" r="2.99"/><circle class="cls-11" cx="259.37" cy="214.47" r="2.99"/><circle class="cls-11" cx="319.88" cy="214.47" r="2.99"/><circle class="cls-11" cx="289.63" cy="214.47" r="2.99"/><circle class="cls-11" cx="304.75" cy="214.47" r="2.99"/><circle class="cls-11" cx="350.14" cy="214.47" r="2.99"/><circle class="cls-11" cx="335.01" cy="214.47" r="2.99"/><circle class="cls-11" cx="244.24" cy="173.63" r="2.99" transform="translate(33.82 386.99) rotate(-80.81)"/><circle class="cls-11" cx="274.5" cy="173.63" r="2.99" transform="translate(59.25 416.86) rotate(-80.81)"/><circle class="cls-11" cx="259.37" cy="173.63" r="2.99" transform="translate(46.54 401.93) rotate(-80.81)"/><circle class="cls-11" cx="319.88" cy="173.63" r="2.99" transform="translate(97.38 461.66) rotate(-80.81)"/><circle class="cls-11" cx="289.63" cy="173.63" r="2.99" transform="matrix(0.16, -0.99, 0.99, 0.16, 71.96, 431.8)"/><circle class="cls-11" cx="304.75" cy="173.63" r="2.99" transform="translate(84.67 446.73) rotate(-80.81)"/><circle class="cls-12" cx="282.06" cy="104.93" r="35.63" transform="translate(8.42 230.18) rotate(-45)"/><rect class="cls-6" x="262.75" y="103.3" width="38.63" height="3.25" transform="translate(8.42 230.18) rotate(-45)"/><rect class="cls-6" x="280.43" y="85.61" width="3.25" height="38.63" transform="translate(8.42 230.18) rotate(-45)"/><path class="cls-13" d="M393.2,371.33a57.09,57.09,0,0,0-.14,16.2,25.79,25.79,0,0,1,.19,4.55c-.09,1.58-.41,3.36-1.74,4.21-2,1.29-4.62-.57-6.07-2.5-6.29-8.4-6.67-19.5-12-28.38-.82-1.37-1.73-2.72-2.67-4.07l1.58-6L369,358.88c-3.74-5.4-7.36-11-7.32-17.73l4.8.41s-2.53-1-4.76-1.91c.18-4.53.75-9.21-.84-13.48-1.16-3.09-3.41-5.57-5.53-8.14l3.14-4.68s-3,.94-5.58,1.48c-.2-.3-.39-.61-.57-.92-2.84-4.83-3.15-10.38-2.91-15.84a74.79,74.79,0,0,1,.86-9.18l2.13.11-1.7-2.34a31.69,31.69,0,0,1,1.47-4.77c.43-1.08,2-4.85,3.38-5,4-.45,7.27,3.18,8.68,6.9,1.34,3.53,2,7.06,3.47,10.37l-1.93,2,3.29.43c.16.25.32.49.5.73,4,5.53,11.18,9.84,15.32,15.25-3.17.86-6.17,1.91-6.17,1.91l8.75,2.73c1,3,.95,6.42-.92,10.52-.61,1.33-1.28,2.6-1.88,3.89l-2.33-1.57,1.62,3.2a13.64,13.64,0,0,0-1.08,5.41c.13,5.79,3.75,10.64,6.7,15.66l-.94,3,2.46-.24a21.56,21.56,0,0,1,2.06,14.23Z"/><path class="cls-14" d="M385.4,380.23c-1.29-13.92-5.1-20-8.47-25.39a35,35,0,0,1-4.08-8c-1.07-3.36-1.2-7.51-1.33-11.9-.21-7.23-.44-14.7-4.89-19.53-7.6-8.23-9.11-27.3-9.11-27.48l1.32,0h-.66l.66,0c0,.18,1.42,18.66,8.76,26.61,4.79,5.2,5,12.92,5.25,20.39.12,4.3.25,8.35,1.26,11.54a33.57,33.57,0,0,0,3.95,7.69c3.27,5.23,7.34,11.74,8.66,26Z"/><path class="cls-15" d="M399.16,383.56a15.12,15.12,0,0,0,5.8-4.62c4-5.91,3.53-13.85,4.64-20.6,1.33-8,4.91-15.95,11.26-21,5.15-4.12,8.61-8.7,9.69-15.43s.37-13.34,1.09-20a103.65,103.65,0,0,1,4.21-20.47c1.79-5.66,3.69-15.11-5.69-13.83a15.15,15.15,0,0,0-9.59,5.38c-6.23,7.64-5.69,18.47-10.34,26.91-2.34,4.27-6,7.43-9.41,10.79-3.09,3-6.36,6.62-7,11.06-.38,2.58-.07,5.24-.67,7.78-.84,3.54-3.29,6.3-5.52,9.06a53.15,53.15,0,0,0-5.87,9.51c-4.32,8.47-8.58,19.28-6,28.83a13.18,13.18,0,0,0,4.43,7.25C385.32,388,393.85,386.21,399.16,383.56Z"/><path class="cls-16" d="M399.13,323a.86.86,0,0,1,1,.73l2.47,17.61,15.72-30.92a.86.86,0,1,1,1.53.78l-11.5,22.61,16-11.21a.86.86,0,0,1,1,1.41L407.14,336.7a.87.87,0,0,1-.37.13l-15,29.51,11-5a.86.86,0,0,1,.71,1.57l-12.29,5.57a.89.89,0,0,1-.53.06l-2.86,5.61a.86.86,0,0,1-1.15.38.82.82,0,0,1-.25-.2.84.84,0,0,1-.12-1l15.05-29.61a.81.81,0,0,1-.19-.43l-2.73-19.41A.87.87,0,0,1,399.13,323Z"/><path class="cls-11" d="M395.32,299.51c3.61-5.8,7-8,7-8a.67.67,0,0,0,.29-.39c4-3.17,14.56-12.33,9.22-15.51s-9.12,9.82-10.36,14.78c-.64.42-3.84,2.73-7.28,8.23,1.3-5.31,3.81-18-2.15-17.38-6.69.73-.36,15.78,1.13,19.12a50.76,50.76,0,0,0-3.56,7.81c-.24.67-.48,1.38-.72,2.11,0-5.87-.66-17.45-6-15.56-6.21,2.17,2.78,14.84,5.26,18.14a83,83,0,0,0-2.53,13.84c-1.27-5.4-4.77-17.66-9.75-14.41-5.57,3.64,6.55,14,9.56,16.47a122.64,122.64,0,0,0-.35,12.91c-2-5-7.36-17.13-11.89-13.09-5,4.45,8.72,13,11.95,14.9.13,3.62.4,7.48.85,11.59-3.44-3.93-12.83-13.82-15.76-8.42-3.09,5.71,11.67,9.05,15.93,9.89.49,4.18,1.15,8.6,2,13.31-2.65-3.11-13.3-15-16.45-9.22-3.29,6.07,13.57,9.46,16.6,10,.57,3,1.21,6.12,1.95,9.36a.71.71,0,0,0,.84.53l.12,0a.7.7,0,0,0,.41-.81c-.74-3.23-1.38-6.34-1.95-9.34C393.13,370,410,368,406.89,362c-3-5.9-14.5,4.93-17.33,7.74-.86-4.63-1.51-9-2-13.1,3.28-.32,20.42-2.3,17.29-8.4-3-5.92-14.58,5-17.36,7.76q-.78-6.81-1-12.7c3.66-.19,20.28-1.38,17.51-7.53-2.68-5.93-14.33,3.86-17.54,6.72a119.79,119.79,0,0,1,.32-13.57c3.68.18,20.31.66,18.17-5.73-2.07-6.16-14.58,2.35-18.1,4.9a84.17,84.17,0,0,1,2.61-14.84c3.92.19,20.17.62,18.06-5.71-2-6-13.8,1.81-17.74,4.62.34-1.17.71-2.28,1.07-3.3a50.25,50.25,0,0,1,3.63-7.94c3.63.13,20.35.39,18.11-6C410.6,289.13,399.55,296.45,395.32,299.51Z"/><path class="cls-17" d="M373.84,402.89h31.25a3.88,3.88,0,0,0,3.87-3.55l4-40.95H366l4,40.95A3.88,3.88,0,0,0,373.84,402.89Z"/><rect class="cls-18" x="363.13" y="358.39" width="52.67" height="7.96" rx="3.31" transform="translate(778.93 724.74) rotate(-180)"/><polygon class="cls-19" points="88.3 405.7 132.31 399.88 180.09 405.7 142.9 408.62 88.3 405.7"/><path class="cls-20" d="M160.32,195c0-7.78,1.48-37.72,1.48-37.72l-49.49-4.86S108,182,106.43,189.66s-.33,65.68,1.19,72.5,8.35,4.41,8.65,11.44c.3,6.84,32.23,7.23,33.87.42,1.69-7,8-4.44,10.88-11.2S160.35,202.73,160.32,195Z"/><path class="cls-21" d="M161.76,141c-.31-12.31-10.69-19.18-21.35-20.23s-22.18,3.67-24.88,15.69c-2.47,11-1.24,16-1.24,16l45.57,4.48S162,152.25,161.76,141Z"/><path class="cls-22" d="M132.21,390.74h-9.52L117.8,399s-4.18,2.4-4.3,3.07a10,10,0,0,0,.62,2.76h18.09v-.07l.49,0a18.8,18.8,0,0,0,0-3.29c-.15-1.81-.49-5.87-.49-5.87v-4.84Z"/><path class="cls-23" d="M132.7,404.74a17,17,0,0,0,.07-1.8,59.39,59.39,0,0,1-6,.42s-13.08,0-13.1.06c.16.55.4,1.36.42,1.41v0h18.09Z"/><path class="cls-23" d="M127.59,400.68a5.89,5.89,0,0,0-2.27-1.51,20.16,20.16,0,0,0-4.38-.33,25.77,25.77,0,0,0-3.14.18l1.9-3.23s3.57-.06,5.44,0c3.21.19,4.48,1.38,5.23,2.26s1.52,5.48,1.52,5.48l-2.51.12A20.92,20.92,0,0,0,127.59,400.68Z"/><path class="cls-22" d="M136.18,390.74h9.51l4.9,8.28s4.17,2.4,4.29,3.07a10,10,0,0,1-.61,2.76H136.18v-.07l-.5,0a18.8,18.8,0,0,1,0-3.29c.15-1.81.5-5.87.5-5.87v-4.84Z"/><path class="cls-23" d="M135.68,404.74a17,17,0,0,1-.07-1.8,59.73,59.73,0,0,0,6,.42s13.07,0,13.09.06c-.15.55-.4,1.36-.42,1.41v0H136.18Z"/><path class="cls-23" d="M140.79,400.68a6,6,0,0,1,2.27-1.51,20.16,20.16,0,0,1,4.38-.33,26,26,0,0,1,3.15.18l-1.91-3.23s-3.57-.06-5.43,0c-3.22.19-4.49,1.38-5.24,2.26s-1.52,5.48-1.52,5.48l2.52.12A20.68,20.68,0,0,1,140.79,400.68Z"/><path class="cls-24" d="M157.22,197.69a73.67,73.67,0,0,1-13.08-5.7s-5.2-3.05-9.95-3-10,3-10,3a73.35,73.35,0,0,1-13.08,5.7s-9,2.5-9.64,5.85l11.06,8.07H155.8l11.06-8.07C166.24,200.19,157.22,197.69,157.22,197.69Z"/><polygon class="cls-22" points="142.09 190.87 142.18 180.7 126.2 180.7 126.29 190.87 142.09 190.87"/><path class="cls-25" d="M126.25,186a48.77,48.77,0,0,0,7.94,1.14,48.57,48.57,0,0,0,7.94-1.14l0-6.24H126.22Z"/><path class="cls-22" d="M142.11,190.87c-.6-.33-1.1-.62-1.5-.83-2.6-1.46-10.24-1.46-12.84,0l-1.49.83s.27,3.14,7.91,3.14S142.11,190.87,142.11,190.87Z"/><path class="cls-24" d="M102,202.52s-8.44,13.71-14.12,23.13c-2.62,4.35-8,14.26-8.37,15l9.25,6.86,10.18-14.2,14.8-22.07Z"/><polygon class="cls-24" points="111.16 209.64 111.16 216.61 111.22 227.85 113.06 262.7 126.08 262.69 126.08 262.7 134.19 262.68 142.31 262.7 142.31 262.69 155.32 262.7 157.17 227.85 157.22 216.61 157.22 209.64 111.16 209.64"/><path class="cls-24" d="M156.69,264.22c-.26-1.06-.81-12.05-.81-12.05l-15.46-.07V252l-6.22,0L128,252v.06l-15.47.07s-.54,11-.81,12.05-1.72,12.7-1.72,12.7h48.44S157,265.28,156.69,264.22Z"/><path class="cls-24" d="M160.73,294.91l-2.49-19.33-24.05-.85-24,.85-2.49,19.33c-2.12,17.54-2.67,99.61-2.67,99.61H163.4S162.85,312.45,160.73,294.91Z"/><rect class="cls-26" x="133.43" y="198.65" width="1.52" height="68.08"/><polygon class="cls-26" points="134.95 198.65 133.43 198.65 132.35 194.02 136.03 194.02 134.95 198.65"/><path class="cls-24" d="M166.85,203.48s.5,1.28,1.2,9.63c.14,1.63-.93,10-1.68,16.92-.22,2.07-2.35,15-4.85,18.92l-8-3,.16-18,.46-16.91,1.64-1.39Z"/><path class="cls-27" d="M159.76,154.55s-.93-17.07-5.65-20.78-10.74-3.52-14.73-3.91-9.59-1.72-14.95,1-9.59,19.28-9.59,19.28h0c-.06,1.45-.08,2.68-.09,3.57-.13,6.34.41,12.59,2.27,16.49,3.24,6.77,7.92,13.23,17.14,14.14s15.06-4.52,19.56-10.54c2.58-3.46,4.33-9.48,5.44-15.72.16-.88.38-2.09.61-3.52Z"/><path class="cls-25" d="M158.45,144.15a34.53,34.53,0,0,0-2.1-7.17c-6.48-1-17.4-1.42-17.4-1.42s-10.79-1.7-17.34-2a34.25,34.25,0,0,0-3.46,6.62,17.09,17.09,0,0,1,3.27.54c1.81.47,5.38,2.73,10.12,3.05,2.91.2,3.93-.81,6.66-.54s3.53,1.45,6.42,1.83c4.71.6,8.65-.92,10.52-1A17.55,17.55,0,0,1,158.45,144.15Z"/><path class="cls-25" d="M157,138.66a56.86,56.86,0,0,1,2.35,11.43c-.64-2.07-1.58-4.76-2.32-5.25a4,4,0,0,0-3.18-.61c-.81.17-1.54-2.15-1.54-2.15l3-3.55Z"/><path class="cls-25" d="M120.63,135.09a57.31,57.31,0,0,0-4.53,10.75c1-1.91,2.48-4.36,3.3-4.7a4,4,0,0,1,3.24,0c.76.33,1.92-1.81,1.92-1.81l-2.24-4.06Z"/><line class="cls-28" x1="136.38" y1="161.75" x2="135.88" y2="166.79"/><ellipse class="cls-29" cx="128.39" cy="153.34" rx="3.06" ry="1.75" transform="translate(-36.77 266.11) rotate(-84.39)"/><ellipse class="cls-29" cx="145.85" cy="155.05" rx="3.06" ry="1.75" transform="translate(-22.73 285.03) rotate(-84.39)"/><path class="cls-30" d="M144.1,147.18c1.83,1.6,6.26,2.76,6.26,2.76l.07-.76s-4.43-1.15-6.26-2.76Z"/><path class="cls-30" d="M131.64,146c-2.11,1.22-6.68,1.49-6.68,1.49l.08-.75s4.57-.27,6.67-1.49Z"/><path class="cls-31" d="M130.63,175.05a9.72,9.72,0,0,1,4.56-1.23,9.73,9.73,0,0,1,4.23,2.09"/><path class="cls-32" d="M114.69,155.43a57,57,0,0,0-.17,7.46,42.25,42.25,0,0,0,1.73,7.76c1.15,3.23,9.4,12.32,10,12.72s2.18,1.95,7.64,2.5l.31,0,.42-4.24-.3,0c-.69-.09-5.51-.74-6.48-.9s-6.52-7.36-8.77-9.51C117.12,169.34,114.69,155.43,114.69,155.43Z"/><path class="cls-32" d="M158.88,159.77a58,58,0,0,1-1.29,7.35,40.85,40.85,0,0,1-3.21,7.27c-1.75,3-11.61,10.27-12.3,10.53s-2.52,1.49-8,1l-.31,0,.42-4.24.29,0c.69,0,5.55.34,6.53.38s7.84-5.95,10.46-7.62C153.79,173,158.88,159.77,158.88,159.77Z"/><path class="cls-32" d="M136,167.65l-.37,0c-2.87-.26-9-.6-9.56-.1s-3,9.5-3.2,10.16l1,1.15s2-8.37,2.76-8.3,5.62.32,8.58.61l.4,0Z"/><path class="cls-32" d="M135.58,167.61l.37,0c2.86.31,8.9,1.16,9.4,1.78s1.06,9.89,1.15,10.58l-1.24.93s-.34-8.61-1.09-8.68-5.57-.78-8.53-1.08l-.41,0Z"/><path class="cls-32" d="M136.68,182.33a16.06,16.06,0,0,0,.55-1.84,24.92,24.92,0,0,0-2.77-.27l-.23,2.33Z"/><path class="cls-32" d="M132.07,181.88a15.68,15.68,0,0,1-.18-1.92,26.53,26.53,0,0,1,2.77.27l-.23,2.34Z"/><path class="cls-33" d="M116,131.68l46.53,4.57a25.25,25.25,0,0,0-46.83-4.59Z"/><path class="cls-34" d="M115.68,130.82s-1.84,6.33-4.86,18.32c-2.6,10.31-4.21,36.78-4.39,40.55h0a102.31,102.31,0,0,1,4.25-15.07c.83-2.38,3.69-11.79,3.5-13.56.78-4.58,3.32-26.42,3.32-26.42Z"/><path class="cls-34" d="M162.7,135.45s.57,6.56,1.2,18.91c.54,10.61-3,36.89-3.59,40.63h0a101.67,101.67,0,0,0-1.23-15.61c-.35-2.5-1.33-12.29-.8-14,.13-4.64,1.89-26.56,1.89-26.56Z"/><path class="cls-20" d="M158.15,166.36l-.26-30s7.05,5.62,6.6,11.28c-.28,3.57-2.3,4.5-3.53,7.57A44.47,44.47,0,0,0,158.15,166.36Z"/><path class="cls-20" d="M114.12,162l6.1-29.36s-8,4.15-8.68,9.78c-.41,3.56,1.38,4.87,2,8.12A44.08,44.08,0,0,1,114.12,162Z"/><path class="cls-33" d="M161.25,134c-2.06-2.59-21.86-2.86-21.86-2.86s-19.48-3.59-22-1.45c-.33.28-5.62,9.45-5.83,12.72.56-2.31,4.12-5.1,10-3.15,1.8.6,5.29,3.68,10,3.94,2.91.16,4-1.33,6.71-1.06s3.49,1.93,6.37,2.34c4.7.67,8.72-1.67,10.61-1.9,6.16-.77,9.1,2.65,9.2,5C164.92,144.32,161.52,134.3,161.25,134Z"/><rect class="cls-23" x="137.12" y="106.5" width="4.76" height="46.97" rx="2.37" transform="translate(-3.51 256.1) rotate(-84.39)"/><path class="cls-23" d="M161.29,138.27l-44.77-4.4a2.26,2.26,0,0,1-2-2.46h0a2.25,2.25,0,0,1,2.46-2l44.77,4.4a2.26,2.26,0,0,1,2,2.46h0A2.27,2.27,0,0,1,161.29,138.27Z"/><path class="cls-22" d="M153.49,246.47c-1.44-1.86-5.26-4.62-8.05-18.55a203.37,203.37,0,0,0-6.92-25.13l5.82-1.9s8.08,16.35,10.54,20.77c2.71,4.87,7.29,13,7.86,20.74.18,2.48-.85,8.21-3,8.28C159,250.71,154.92,248.33,153.49,246.47Z"/><path class="cls-33" d="M153.05,246.81c-1.44-1.86-4.59-4.6-8.93-18.21-1.92-6-5.51-16.93-5.51-16.93l10.17-4.41s4.22,9.57,6.6,14.34c2.49,5,7.27,13.08,7.85,20.85.18,2.48-1.26,8.32-3.45,8.39C159.08,250.87,154.49,248.67,153.05,246.81Z"/><path class="cls-22" d="M80.55,245.84c.58,1.85,2.8,4.84,9.81,14.21,5.72,7.64,15.62,17.31,15.62,17.31l3.43-6.61S101,260,99.14,256.27c-2-4.11-5.58-11-9.3-14.07l-10.36-1.57C79.14,241.1,80,244,80.55,245.84Z"/><path class="cls-33" d="M80.25,246c.59,1.85,2.81,4.84,9.82,14.2,5.71,7.65,9.54,12.18,9.54,12.18l7.58-6.42s-4.81-6.45-7-10.07c-2.37-3.93-5.71-10.72-10.35-13.7l-10.36-1.57C79.14,241.1,79.67,244.16,80.25,246Z"/><path class="cls-22" d="M144.89,203l-4.28,3.6-2-.1c-2.6-.58-9-4.46-9.93-6.19-1.24-2.34-.07-5.76,1.68-7.5a8,8,0,0,1,9.41-1.79S144.77,196.94,144.89,203Z"/><path class="cls-22" d="M132,183.4a1.88,1.88,0,0,0-1.57-.62c-.46.06-1.46.94-1.28,1.51a33,33,0,0,0,2.73,3.38,8.31,8.31,0,0,0-2.26-1.07c-.17,0-1.3,1-1.35,1.45a12.49,12.49,0,0,0,1.32,2.6A2.76,2.76,0,0,0,128,190c-.35,0-1.2,1.05-1.27,1.28a15,15,0,0,0,1,2.43,3.7,3.7,0,0,0-1.24-.19,2.32,2.32,0,0,0-1,1.15,8.8,8.8,0,0,0,.77,2.22,33.88,33.88,0,0,0,2.78,3.88l10.8-9.69S132.7,184,132,183.4Z"/><path class="cls-22" d="M144.89,203s0-4.31.06-5.81-.9-5.17-.9-5.94c0-.46-.24-4.42-.1-6.48.07-1-1.83-.55-2.68.35s-.77,5-.77,5l-1.12,7.12Z"/><path class="cls-35" d="M135.88,192.18s-3.14-3.67-4-4.51"/><path class="cls-35" d="M132.74,194.19s-2.19-2.47-3-3.36"/><line class="cls-35" x1="130.17" y1="196.4" x2="127.74" y2="193.69"/><path class="cls-35" d="M139.81,191.06s-7.11-7-7.85-7.66a1.88,1.88,0,0,0-1.57-.62c-.46.06-1.46.94-1.28,1.51a33,33,0,0,0,2.73,3.38,8.31,8.31,0,0,0-2.26-1.07c-.17,0-1.3,1-1.35,1.45a12.49,12.49,0,0,0,1.32,2.6A2.76,2.76,0,0,0,128,190c-.35,0-1.2,1.05-1.27,1.28a15,15,0,0,0,1,2.43,3.7,3.7,0,0,0-1.24-.19,1.57,1.57,0,0,0-.45.31"/><path class="cls-25" d="M108.17,285.56s0,4.39.15,5.57,1,5.17.38,5.44a3.13,3.13,0,0,1-1.48.11s-2.51-7.82-2.51-7.94.17-5.53.23-5.65,2-2.84,2-2.84l1.93.6Z"/><path class="cls-22" d="M104.51,270A118,118,0,0,0,101.87,282c-.41,3.67,2.16,11.74,3.21,13.59s2.81,3.65,3.33,3.59.72-1.63.49-2.24-1.41-2.53-1.41-2.53l-1.5-3.6-.08-4.82,1.13-2.78,1,.15s-.65,4.57-.23,5.57,1.39,1.48,1.67,1,1.06-5.23,1.47-7.32,0-7,0-7.75A14.49,14.49,0,0,0,109,270C107.76,268.75,104.51,270,104.51,270Z"/><path class="cls-35" d="M142.53,184.38a3.27,3.27,0,0,0-1.26.78c-.85.9-.77,5-.77,5l-.17,1"/></g></g></g></svg>